<svg id="Group_1568" data-name="Group 1568" xmlns="http://www.w3.org/2000/svg" xmlns:xlink="http://www.w3.org/1999/xlink" width="500.005" height="100.91" viewBox="0 0 500.005 100.91">
  <defs>
    <clipPath id="clip-path">
      <rect id="Rectangle_2087" data-name="Rectangle 2087" width="500.005" height="100.91" fill="none"/>
    </clipPath>
  </defs>
  <g id="Group_1567" data-name="Group 1567" clip-path="url(#clip-path)">
    <path id="Path_5410" data-name="Path 5410" d="M129.32,51.62,147.1,75.24a2.146,2.146,0,0,1,.33.68,3.339,3.339,0,0,1,.1.48.707.707,0,0,1-.35.56,1.4,1.4,0,0,1-.85.25c-.44,0-.88-.02-1.31-.06s-.88-.08-1.31-.14a.722.722,0,0,1-.44-.19,3.194,3.194,0,0,1-.5-.48c-.17-.19-.34-.4-.52-.62s-.34-.42-.46-.6L126.48,54.55l-7.89,7.65V75.81c0,.93-.5,1.39-1.51,1.39h-1.39a1.226,1.226,0,0,1-1.39-1.39V21.27a1.267,1.267,0,0,1,1.43-1.43h1.2a1.2,1.2,0,0,1,1.04.48,3.02,3.02,0,0,1,.48,1.26,10.063,10.063,0,0,1,.14,1.72V56.56q4.215-4.14,8.39-8.23t8.39-8.2a1.593,1.593,0,0,1,.7-.44,4.48,4.48,0,0,1,1.02-.25c.37-.05.75-.09,1.12-.12s.72-.04,1.02-.04a1,1,0,0,1,.89.5,1.682,1.682,0,0,1,.31.73.9.9,0,0,1-.27.66Z" fill="#16b8f3"/>
    <path id="Path_5411" data-name="Path 5411" d="M146.33,77.93q-.69,0-1.38-.06c-.46-.04-.89-.08-1.3-.13a1.506,1.506,0,0,1-.83-.34,4.074,4.074,0,0,1-.61-.58c-.17-.2-.35-.41-.53-.63s-.35-.44-.49-.64l-14.81-19.9-7.08,6.88V75.84a1.992,1.992,0,0,1-2.22,2.11h-1.39a1.94,1.94,0,0,1-2.11-2.11V21.27a1.977,1.977,0,0,1,2.15-2.15h1.2a1.868,1.868,0,0,1,1.62.78,3.818,3.818,0,0,1,.61,1.55,10.545,10.545,0,0,1,.15,1.84V54.85l7.17-7.04c2.8-2.74,5.61-5.49,8.37-8.18a2.386,2.386,0,0,1,.96-.62,5.822,5.822,0,0,1,1.18-.29q.585-.075,1.17-.12c.39-.03.75-.04,1.07-.04a1.722,1.722,0,0,1,1.5.84,2.205,2.205,0,0,1,.42,1.11,1.609,1.609,0,0,1-.48,1.16L130.29,51.68l17.4,23.12a2.719,2.719,0,0,1,.45.92,2.605,2.605,0,0,1,.12.67,1.362,1.362,0,0,1-.65,1.14,2.1,2.1,0,0,1-1.28.4m-2.57-1.63h.02c.41.05.84.09,1.29.13.41.04.84.06,1.25.06a.707.707,0,0,0,.43-.12.138.138,0,0,0,.04-.03c-.01-.05-.03-.13-.06-.25a1.319,1.319,0,0,0-.21-.43L128.36,51.53l11.28-10.88a.143.143,0,0,0,.05-.11,1.88,1.88,0,0,0-.2-.39.27.27,0,0,0-.28-.16c-.29,0-.62.01-.98.04s-.72.06-1.07.11a4.265,4.265,0,0,0-.87.21.9.9,0,0,0-.4.24l-.04.05c-2.77,2.69-5.59,5.45-8.39,8.19l-9.61,9.43V23.3a9.746,9.746,0,0,0-.12-1.6,2.243,2.243,0,0,0-.36-.96c-.04-.06-.13-.18-.46-.18h-1.2c-.56,0-.71.15-.71.71V75.82c0,.53.15.68.68.68h1.39c.74,0,.79-.27.79-.68V61.91l8.69-8.43,15.8,21.22c.13.18.27.37.44.57.18.22.35.42.51.61a2.309,2.309,0,0,0,.4.38.21.21,0,0,0,.06.04" fill="#16b8f3"/>
    <path id="Path_5412" data-name="Path 5412" d="M154.6,27.96a3.38,3.38,0,1,1,.99,2.38,3.24,3.24,0,0,1-.99-2.38m1.16,12.79a1.355,1.355,0,0,1,.41-1.04,1.459,1.459,0,0,1,1.06-.39h1.39a1.382,1.382,0,0,1,1.06.39,1.484,1.484,0,0,1,.37,1.04V75.82a1.247,1.247,0,0,1-1.43,1.39h-1.35c-1.01,0-1.51-.46-1.51-1.39Z" fill="#16b8f3"/>
    <path id="Path_5413" data-name="Path 5413" d="M158.62,77.93h-1.35a1.992,1.992,0,0,1-2.22-2.11V40.75a2.094,2.094,0,0,1,.63-1.56,2.169,2.169,0,0,1,1.56-.58h1.39a2.064,2.064,0,0,1,1.58.61,2.133,2.133,0,0,1,.56,1.54V75.83a1.958,1.958,0,0,1-2.15,2.1m-1.39-37.89a.774.774,0,0,0-.57.19.649.649,0,0,0-.18.53V75.83c0,.41.06.68.79.68h1.35c.62,0,.71-.2.71-.68V40.75a.721.721,0,0,0-.17-.55c-.04-.04-.16-.16-.54-.16h-1.39m.73-8a4.073,4.073,0,0,1-2.88-6.96,4.073,4.073,0,1,1,2.88,6.96m0-6.73a2.492,2.492,0,0,0-1.87.78,2.53,2.53,0,0,0-.78,1.87,2.492,2.492,0,0,0,.78,1.87,2.53,2.53,0,0,0,1.87.78,2.492,2.492,0,0,0,1.87-.78,2.529,2.529,0,0,0,.78-1.87,2.663,2.663,0,0,0-2.65-2.65" fill="#16b8f3"/>
    <path id="Path_5414" data-name="Path 5414" d="M172.04,41.06c0-1.19.57-1.78,1.7-1.78h.85c1.26,0,1.89.59,1.89,1.78v4.02a9.114,9.114,0,0,1,1.53-2.57,9.92,9.92,0,0,1,2.28-2.01,11.093,11.093,0,0,1,2.9-1.3,12.017,12.017,0,0,1,6.01-.15,17.963,17.963,0,0,1,2.69.81A9.648,9.648,0,0,1,194,41a1.725,1.725,0,0,1,.85,1.3,2.253,2.253,0,0,1-.23.89,5.543,5.543,0,0,1-.56.97,4.013,4.013,0,0,1-.68.77.971.971,0,0,1-.58.31c-.21,0-.37-.01-.48-.02a.967.967,0,0,1-.41-.17,16.893,16.893,0,0,0-2.59-1.28,7.979,7.979,0,0,0-2.98-.58,8.081,8.081,0,0,0-3.96.99,9.985,9.985,0,0,0-3.09,2.63,13.325,13.325,0,0,0-2.05,3.75,12.88,12.88,0,0,0-.75,4.35l.04,20.92a1.247,1.247,0,0,1-1.43,1.39h-1.59c-.98,0-1.47-.46-1.47-1.39V41.06Z" fill="#16b8f3"/>
    <path id="Path_5415" data-name="Path 5415" d="M175.09,77.93H173.5a1.978,1.978,0,0,1-2.19-2.11V41.06a2.231,2.231,0,0,1,2.42-2.49h.85a2.323,2.323,0,0,1,2.61,2.49v1.32c.08-.11.17-.22.26-.33a10.649,10.649,0,0,1,2.44-2.15,11.874,11.874,0,0,1,3.09-1.38,12.64,12.64,0,0,1,6.36-.16,16.932,16.932,0,0,1,2.8.85,10.048,10.048,0,0,1,2.27,1.23,2.416,2.416,0,0,1,1.14,1.87,2.822,2.822,0,0,1-.3,1.19,6.6,6.6,0,0,1-.63,1.08,5.411,5.411,0,0,1-.79.9,1.621,1.621,0,0,1-1.06.49c-.24,0-.42-.01-.56-.02a1.656,1.656,0,0,1-.72-.29,15.245,15.245,0,0,0-2.46-1.21,7.494,7.494,0,0,0-6.33.37,9.334,9.334,0,0,0-2.87,2.44,12.663,12.663,0,0,0-1.94,3.55,12.209,12.209,0,0,0-.71,4.11l.04,20.91a1.934,1.934,0,0,1-2.13,2.1M173.74,40c-.64,0-.99.17-.99,1.06V75.82c0,.47.11.68.75.68h1.59c.62,0,.71-.2.71-.68l-.04-20.91a13.519,13.519,0,0,1,.8-4.59,13.962,13.962,0,0,1,2.16-3.95,10.738,10.738,0,0,1,3.31-2.81,8.884,8.884,0,0,1,4.31-1.07,8.765,8.765,0,0,1,3.24.63,17.416,17.416,0,0,1,2.7,1.33c.1.06.13.08.13.08.03,0,.13.01.32.01a1.245,1.245,0,0,0,.17-.13,4.2,4.2,0,0,0,.57-.65,5.189,5.189,0,0,0,.49-.85,1.44,1.44,0,0,0,.17-.59c0-.19-.21-.45-.56-.72a8.75,8.75,0,0,0-1.94-1.05,16.4,16.4,0,0,0-2.57-.78,12.007,12.007,0,0,0-2.44-.29,11.546,11.546,0,0,0-3.22.44,10.443,10.443,0,0,0-2.71,1.21A9.218,9.218,0,0,0,178.57,43a8.548,8.548,0,0,0-1.41,2.37l-1.38,3.56V41.06c0-.67-.19-1.06-1.18-1.06Z" fill="#16b8f3"/>
    <path id="Path_5416" data-name="Path 5416" d="M237.57,75.9a1.246,1.246,0,0,1-.43,1.02,1.684,1.684,0,0,1-1.16.37h-1.24a1.373,1.373,0,0,1-1.55-1.55V69.01a11.87,11.87,0,0,1-2.05,3.85,12.912,12.912,0,0,1-3.19,2.84,15.023,15.023,0,0,1-4.08,1.78,17.944,17.944,0,0,1-4.76.62,17.581,17.581,0,0,1-7.35-1.55,18.594,18.594,0,0,1-5.9-4.21,19.818,19.818,0,0,1-3.92-6.26,20.692,20.692,0,0,1-1.43-7.69,21.028,21.028,0,0,1,1.41-7.71,19.874,19.874,0,0,1,3.9-6.32,18.143,18.143,0,0,1,5.9-4.25,18.268,18.268,0,0,1,12.23-.89,15.562,15.562,0,0,1,4.16,1.86,13.319,13.319,0,0,1,3.17,2.84,10.343,10.343,0,0,1,1.89,3.61l.15-6.61a1.886,1.886,0,0,1,.39-1.18,1.407,1.407,0,0,1,1.12-.41h1.12a1.643,1.643,0,0,1,1.14.41,1.5,1.5,0,0,1,.44,1.18V75.9Zm-4.41-17.48a17.488,17.488,0,0,0-1.02-5.99,15.413,15.413,0,0,0-2.88-4.95,13.533,13.533,0,0,0-4.45-3.36,13.767,13.767,0,0,0-11.42,0,14.021,14.021,0,0,0-4.48,3.34,15.717,15.717,0,0,0-2.94,4.93,17.4,17.4,0,0,0,0,11.96,15.1,15.1,0,0,0,2.96,4.89,14.128,14.128,0,0,0,4.5,3.31,13.342,13.342,0,0,0,5.7,1.22,13.208,13.208,0,0,0,5.64-1.2,13.56,13.56,0,0,0,4.45-3.27,15.113,15.113,0,0,0,2.9-4.87,17.213,17.213,0,0,0,1.04-6.01" fill="#16b8f3"/>
    <path id="Path_5417" data-name="Path 5417" d="M219.12,78.82a18.3,18.3,0,0,1-7.64-1.61,19.158,19.158,0,0,1-6.12-4.38,20.7,20.7,0,0,1-4.07-6.49,21.492,21.492,0,0,1-1.48-7.96,21.777,21.777,0,0,1,1.46-7.97,20.954,20.954,0,0,1,4.04-6.55,18.9,18.9,0,0,1,6.13-4.42,19.111,19.111,0,0,1,12.73-.93,16.516,16.516,0,0,1,4.35,1.94,13.954,13.954,0,0,1,3.34,3,10.561,10.561,0,0,1,.69.96l.08-3.53a2.593,2.593,0,0,1,.56-1.63,2.055,2.055,0,0,1,1.66-.66h1.12a2.324,2.324,0,0,1,1.62.59,2.214,2.214,0,0,1,.68,1.71V75.88a2.032,2.032,0,0,1-.67,1.57,2.411,2.411,0,0,1-1.63.54h-1.24a2.077,2.077,0,0,1-2.26-2.26V72.22a10.605,10.605,0,0,1-.78,1.08,13.735,13.735,0,0,1-3.36,3,15.622,15.622,0,0,1-4.27,1.86,18.029,18.029,0,0,1-4.94.66m0-39.55a17.085,17.085,0,0,0-7.09,1.48,17.518,17.518,0,0,0-5.67,4.09,19.246,19.246,0,0,0-3.76,6.1,20.448,20.448,0,0,0-1.36,7.45,19.907,19.907,0,0,0,1.38,7.43,19.371,19.371,0,0,0,3.78,6.04,17.861,17.861,0,0,0,5.67,4.05,16.967,16.967,0,0,0,7.05,1.48,17.394,17.394,0,0,0,4.57-.59,14.506,14.506,0,0,0,3.89-1.69,12.086,12.086,0,0,0,3.01-2.69,11.337,11.337,0,0,0,1.93-3.62l1.4-4.35v11.3c0,.64.19.83.83.83h1.24a1.092,1.092,0,0,0,.69-.19.569.569,0,0,0,.18-.48v-35a.789.789,0,0,0-.21-.65.9.9,0,0,0-.66-.22h-1.12a.842.842,0,0,0-.58.16,1.308,1.308,0,0,0-.22.75l-.26,11.18-1.3-4.4a9.749,9.749,0,0,0-1.77-3.37,12.53,12.53,0,0,0-3-2.69,14.842,14.842,0,0,0-3.96-1.77,16.867,16.867,0,0,0-4.66-.63m0,35.22a14.005,14.005,0,0,1-6.01-1.29,14.861,14.861,0,0,1-4.73-3.47,15.952,15.952,0,0,1-3.1-5.12,18.066,18.066,0,0,1,0-12.47,16.5,16.5,0,0,1,3.07-5.15,14.811,14.811,0,0,1,4.71-3.52,13.955,13.955,0,0,1,6.05-1.31,13.721,13.721,0,0,1,5.99,1.31,14.32,14.32,0,0,1,4.68,3.54,16.306,16.306,0,0,1,3.01,5.17,18.182,18.182,0,0,1,1.07,6.24,17.907,17.907,0,0,1-1.09,6.26,15.894,15.894,0,0,1-3.04,5.1,14.319,14.319,0,0,1-4.68,3.44,13.865,13.865,0,0,1-5.93,1.27m0-30.89a12.48,12.48,0,0,0-5.43,1.17,13.411,13.411,0,0,0-4.26,3.17,14.8,14.8,0,0,0-2.8,4.71,16.315,16.315,0,0,0-1.02,5.74,15.944,15.944,0,0,0,1.02,5.72,14.425,14.425,0,0,0,2.82,4.66,13.408,13.408,0,0,0,4.28,3.14,12.839,12.839,0,0,0,14.95-3.08,14.547,14.547,0,0,0,2.76-4.64,16.523,16.523,0,0,0,1-5.76,16.858,16.858,0,0,0-.98-5.75,14.657,14.657,0,0,0-2.75-4.72,12.912,12.912,0,0,0-4.22-3.19,12.216,12.216,0,0,0-5.37-1.17" fill="#16b8f3"/>
    <path id="Path_5418" data-name="Path 5418" d="M253.76,75.82a1.247,1.247,0,0,1-1.43,1.39h-1.59c-.98,0-1.47-.46-1.47-1.39V40.41a1.271,1.271,0,0,1,.31-.89,1.137,1.137,0,0,1,.89-.35h2.28a.813.813,0,0,1,.89.85l.12,4.6a17.718,17.718,0,0,1,1.91-2.26,11.911,11.911,0,0,1,2.38-1.84,12.928,12.928,0,0,1,2.84-1.24,11.318,11.318,0,0,1,3.31-.46,13.906,13.906,0,0,1,4.14.6,13.54,13.54,0,0,1,6.38,4.17,14.231,14.231,0,0,1,2.05,3.19,15.36,15.36,0,0,1,2.01-3.27,13.177,13.177,0,0,1,2.73-2.55,12.179,12.179,0,0,1,3.38-1.64,13.162,13.162,0,0,1,3.98-.58,13.335,13.335,0,0,1,5.12.97,13.785,13.785,0,0,1,4.21,2.65,14,14,0,0,1,3,3.96,14.663,14.663,0,0,1,1.47,4.95,37.256,37.256,0,0,1,.23,4.06V75.67a1.466,1.466,0,0,1-.43,1.16,1.592,1.592,0,0,1-1.12.39h-1.39c-1.06,0-1.59-.5-1.59-1.51V53.29a11.687,11.687,0,0,0-.75-3.94,9.721,9.721,0,0,0-1.99-3.21,9.515,9.515,0,0,0-3.05-2.15,9.367,9.367,0,0,0-3.87-.79,9.967,9.967,0,0,0-3.48.62,10.55,10.55,0,0,0-3,1.7,9.786,9.786,0,0,0-2.24,2.59,10.22,10.22,0,0,0-1.26,3.25c-.13.62-.23,1.25-.31,1.89a15.908,15.908,0,0,0-.12,1.97V75.67c0,1.03-.49,1.55-1.47,1.55h-1.55a1.316,1.316,0,0,1-1.47-1.51V53.16a10.162,10.162,0,0,0-.83-3.9,10.4,10.4,0,0,0-2.13-3.17,10.011,10.011,0,0,0-3.11-2.13,9.519,9.519,0,0,0-3.87-.77,9.869,9.869,0,0,0-3.94.79,10.171,10.171,0,0,0-3.23,2.18,10.345,10.345,0,0,0-2.17,3.25,9.993,9.993,0,0,0-.79,3.98V75.82Z" fill="#16b8f3"/>
    <path id="Path_5419" data-name="Path 5419" d="M301.36,77.93h-1.39a2.078,2.078,0,0,1-2.3-2.22V53.29a10.617,10.617,0,0,0-.71-3.69,9.124,9.124,0,0,0-1.84-2.98,8.7,8.7,0,0,0-6.39-2.71,9.23,9.23,0,0,0-3.23.57,9.724,9.724,0,0,0-2.79,1.59,9.357,9.357,0,0,0-3.25,5.42c-.12.6-.23,1.21-.3,1.84a16.69,16.69,0,0,0-.11,1.89V75.67a2.044,2.044,0,0,1-2.19,2.26h-1.55a2.027,2.027,0,0,1-2.19-2.22V53.16a9.352,9.352,0,0,0-.77-3.62,9.739,9.739,0,0,0-1.98-2.95,8.938,8.938,0,0,0-6.47-2.68,9.363,9.363,0,0,0-6.66,2.77,9.687,9.687,0,0,0-2.02,3.03,9.331,9.331,0,0,0-.74,3.7V75.83a1.956,1.956,0,0,1-2.15,2.11h-1.59a1.978,1.978,0,0,1-2.19-2.11V40.41a1.986,1.986,0,0,1,.49-1.37,1.82,1.82,0,0,1,1.42-.59h2.28a1.508,1.508,0,0,1,1.6,1.5V40l.07,2.64c.24-.27.49-.53.74-.79a12.956,12.956,0,0,1,2.52-1.95,14.192,14.192,0,0,1,3-1.31,12.008,12.008,0,0,1,3.51-.49,14.427,14.427,0,0,1,8.07,2.38,14.412,14.412,0,0,1,4.48,4.75,16.033,16.033,0,0,1,1.46-2.16,13.78,13.78,0,0,1,2.87-2.69,13.072,13.072,0,0,1,3.58-1.74,13.938,13.938,0,0,1,4.2-.61,14.167,14.167,0,0,1,5.39,1.02A14.465,14.465,0,0,1,301.81,46a15.169,15.169,0,0,1,1.54,5.19,36.309,36.309,0,0,1,.24,4.14V75.67a2.177,2.177,0,0,1-.66,1.69,2.224,2.224,0,0,1-1.57.57M288.71,42.47a10.281,10.281,0,0,1,4.16.85,10.139,10.139,0,0,1,3.28,2.31,10.526,10.526,0,0,1,2.14,3.44,12.427,12.427,0,0,1,.8,4.19V75.7c0,.54.13.79.87.79h1.39a.943.943,0,0,0,.64-.2.818.818,0,0,0,.19-.63V55.32a35.68,35.68,0,0,0-.23-3.98,13.944,13.944,0,0,0-1.4-4.7,13.049,13.049,0,0,0-6.84-6.27,12.761,12.761,0,0,0-4.85-.91,12.406,12.406,0,0,0-3.77.55,11.516,11.516,0,0,0-3.19,1.55,12.785,12.785,0,0,0-2.58,2.41,14.774,14.774,0,0,0-1.92,3.12l-.64,1.41-.66-1.41a13.713,13.713,0,0,0-1.94-3.03,13.008,13.008,0,0,0-2.69-2.38,12.982,12.982,0,0,0-7.27-2.15,10.955,10.955,0,0,0-3.1.43,12.235,12.235,0,0,0-2.69,1.17,10.745,10.745,0,0,0-2.23,1.73,17.051,17.051,0,0,0-1.84,2.17l-1.25,1.76-.17-6.73a.359.359,0,0,0-.04-.17.6.6,0,0,0-.13-.01h-2.28c-.26,0-.33.08-.35.11a.537.537,0,0,0-.13.41V75.81c0,.47.11.68.75.68h1.59c.62,0,.71-.2.71-.68V53.39a10.836,10.836,0,0,1,.85-4.26,11.265,11.265,0,0,1,2.31-3.47,10.783,10.783,0,0,1,7.68-3.19,10.391,10.391,0,0,1,4.15.83,10.714,10.714,0,0,1,3.34,2.28,11.05,11.05,0,0,1,3.16,7.57V75.7c0,.61.17.79.75.79h1.55c.51,0,.75-.12.75-.83V55.21a17.4,17.4,0,0,1,.12-2.06c.08-.67.19-1.32.32-1.96a11.023,11.023,0,0,1,1.34-3.47,10.68,10.68,0,0,1,2.4-2.78,10.89,10.89,0,0,1,6.95-2.47" fill="#16b8f3"/>
    <path id="Path_5420" data-name="Path 5420" d="M335.49,51.62l17.78,23.62a2.146,2.146,0,0,1,.33.68,3.341,3.341,0,0,1,.1.48.707.707,0,0,1-.35.56,1.4,1.4,0,0,1-.85.25c-.44,0-.88-.02-1.31-.06s-.88-.08-1.31-.14a.722.722,0,0,1-.44-.19,3.194,3.194,0,0,1-.5-.48c-.17-.19-.34-.4-.52-.62s-.34-.42-.46-.6L332.65,54.55l-7.89,7.65V75.81c0,.93-.5,1.39-1.51,1.39h-1.39a1.226,1.226,0,0,1-1.39-1.39V21.27a1.267,1.267,0,0,1,1.43-1.43h1.2a1.2,1.2,0,0,1,1.04.48,3.021,3.021,0,0,1,.48,1.26,10.064,10.064,0,0,1,.14,1.72V56.56q4.215-4.14,8.39-8.23t8.39-8.2a1.593,1.593,0,0,1,.7-.44,4.481,4.481,0,0,1,1.02-.25c.37-.05.75-.09,1.12-.12s.72-.04,1.02-.04a1,1,0,0,1,.89.5,1.683,1.683,0,0,1,.31.73.9.9,0,0,1-.27.66Z" fill="#006aff"/>
    <path id="Path_5421" data-name="Path 5421" d="M352.5,77.93q-.69,0-1.38-.06c-.46-.04-.89-.08-1.3-.13a1.506,1.506,0,0,1-.83-.34,4.074,4.074,0,0,1-.61-.58c-.17-.2-.35-.41-.53-.63s-.35-.44-.49-.64l-14.81-19.9-7.08,6.88V75.84a1.992,1.992,0,0,1-2.22,2.11h-1.39a1.94,1.94,0,0,1-2.11-2.11V21.27a1.977,1.977,0,0,1,2.15-2.15h1.2a1.868,1.868,0,0,1,1.62.78,3.817,3.817,0,0,1,.61,1.55,10.544,10.544,0,0,1,.15,1.84V54.85l7.17-7.04c2.8-2.74,5.61-5.49,8.37-8.18a2.386,2.386,0,0,1,.96-.62,5.822,5.822,0,0,1,1.18-.29q.585-.075,1.17-.12c.39-.03.75-.04,1.07-.04a1.722,1.722,0,0,1,1.5.84,2.205,2.205,0,0,1,.42,1.11,1.609,1.609,0,0,1-.48,1.16L336.46,51.68l17.4,23.12a2.718,2.718,0,0,1,.45.92,2.605,2.605,0,0,1,.12.67,1.362,1.362,0,0,1-.65,1.14,2.076,2.076,0,0,1-1.28.4m-2.57-1.63h.02c.41.05.84.09,1.29.13.41.04.84.06,1.25.06a.707.707,0,0,0,.43-.12.138.138,0,0,0,.04-.03c-.01-.05-.03-.13-.06-.25a1.319,1.319,0,0,0-.21-.43L334.53,51.53l11.28-10.88a.143.143,0,0,0,.05-.11,1.879,1.879,0,0,0-.2-.39.27.27,0,0,0-.28-.16c-.29,0-.62.01-.98.04s-.72.06-1.07.11a4.265,4.265,0,0,0-.87.21.9.9,0,0,0-.4.24l-.04.05c-2.77,2.69-5.59,5.45-8.39,8.19l-9.61,9.43V23.3a9.743,9.743,0,0,0-.12-1.6,2.243,2.243,0,0,0-.36-.96c-.04-.06-.13-.18-.46-.18h-1.2c-.56,0-.71.15-.71.71V75.82c0,.53.15.68.68.68h1.39c.74,0,.79-.27.79-.68V61.91l8.69-8.43,15.8,21.22c.13.18.27.37.44.57.18.22.35.42.51.61a2.308,2.308,0,0,0,.4.38.589.589,0,0,1,.06.04" fill="#006aff"/>
    <path id="Path_5422" data-name="Path 5422" d="M357.64,58.34a19.414,19.414,0,0,1,1.55-7.71,20.119,20.119,0,0,1,4.21-6.3,19.771,19.771,0,0,1,6.26-4.23,19.9,19.9,0,0,1,15.4,0,19.67,19.67,0,0,1,10.53,10.53,19.9,19.9,0,0,1,0,15.4,19.723,19.723,0,0,1-10.53,10.51,19.9,19.9,0,0,1-15.4,0,19.66,19.66,0,0,1-6.26-4.23,20.087,20.087,0,0,1-4.21-6.28,19.213,19.213,0,0,1-1.55-7.69m4.26,0a14.631,14.631,0,0,0,1.24,6.01,16.271,16.271,0,0,0,3.34,4.93,15.411,15.411,0,0,0,4.93,3.34,15.463,15.463,0,0,0,12.04,0,15.663,15.663,0,0,0,4.95-3.34,16.271,16.271,0,0,0,3.34-4.93,15.281,15.281,0,0,0,0-12.06,16.178,16.178,0,0,0-3.34-4.95A15.886,15.886,0,0,0,383.45,44a14.969,14.969,0,0,0-6.01-1.24A14.759,14.759,0,0,0,371.41,44a16.207,16.207,0,0,0-4.93,3.34,15.716,15.716,0,0,0-3.34,4.95,14.921,14.921,0,0,0-1.24,6.05" fill="#006aff"/>
    <path id="Path_5423" data-name="Path 5423" d="M377.36,78.82a20.166,20.166,0,0,1-7.98-1.6,20.5,20.5,0,0,1-6.49-4.39,21.034,21.034,0,0,1-4.36-6.5,20.725,20.725,0,0,1,0-15.97,20.4,20.4,0,0,1,10.85-10.91,20.725,20.725,0,0,1,15.97,0,20.457,20.457,0,0,1,10.92,10.92,20.725,20.725,0,0,1,0,15.97,20.363,20.363,0,0,1-18.91,12.48m0-39.55a18.614,18.614,0,0,0-7.41,1.49,19.111,19.111,0,0,0-6.04,4.08,19.4,19.4,0,0,0-4.06,6.08,19.22,19.22,0,0,0,0,14.84,19.6,19.6,0,0,0,4.06,6.06,19.111,19.111,0,0,0,6.04,4.08,19.22,19.22,0,0,0,14.84,0,19.007,19.007,0,0,0,10.16-10.14,19.22,19.22,0,0,0,0-14.84,18.955,18.955,0,0,0-10.16-10.16,18.746,18.746,0,0,0-7.43-1.49m.08,35.29a15.748,15.748,0,0,1-6.31-1.28,16.1,16.1,0,0,1-5.15-3.5,17.063,17.063,0,0,1-3.49-5.14,15.512,15.512,0,0,1-1.3-6.3,15.807,15.807,0,0,1,1.3-6.34,16.431,16.431,0,0,1,8.64-8.66,15.964,15.964,0,0,1,12.62,0,16.717,16.717,0,0,1,5.17,3.49A16.545,16.545,0,0,1,392.41,52a15.807,15.807,0,0,1,1.3,6.34,15.512,15.512,0,0,1-1.3,6.3,17.063,17.063,0,0,1-3.49,5.14,16.283,16.283,0,0,1-5.18,3.5,15.876,15.876,0,0,1-6.3,1.28m0-31.08a14.207,14.207,0,0,0-5.74,1.18,15.43,15.43,0,0,0-4.71,3.19,15.228,15.228,0,0,0-3.19,4.73,14.337,14.337,0,0,0-1.18,5.76,14.043,14.043,0,0,0,1.18,5.72,15.523,15.523,0,0,0,3.2,4.71,14.817,14.817,0,0,0,4.7,3.19,14.781,14.781,0,0,0,11.48,0,14.684,14.684,0,0,0,4.72-3.19,15.646,15.646,0,0,0,3.2-4.71,14.078,14.078,0,0,0,1.18-5.72,14.337,14.337,0,0,0-1.18-5.76,15.523,15.523,0,0,0-3.19-4.73,15.228,15.228,0,0,0-4.73-3.19,14.418,14.418,0,0,0-5.74-1.18" fill="#006aff"/>
    <path id="Path_5424" data-name="Path 5424" d="M406.82,21.19a1.3,1.3,0,0,1,.41-1.02,1.536,1.536,0,0,1,1.06-.37h1.2a1.274,1.274,0,0,1,1.02.37,1.9,1.9,0,0,1,.41,1.02c.05.64.1,1.34.14,2.09s.06,1.51.06,2.28V75.82a1.247,1.247,0,0,1-1.43,1.39h-1.35c-1.01,0-1.51-.46-1.51-1.39V21.19Z" fill="#006aff"/>
    <path id="Path_5425" data-name="Path 5425" d="M409.68,77.93h-1.35a1.992,1.992,0,0,1-2.22-2.11V21.19a1.994,1.994,0,0,1,.64-1.55,2.2,2.2,0,0,1,1.54-.55h1.2a1.976,1.976,0,0,1,1.56.61,2.515,2.515,0,0,1,.58,1.42c.05.68.1,1.39.14,2.14s.06,1.54.06,2.32V75.84a1.956,1.956,0,0,1-2.15,2.09m-1.39-57.42a.823.823,0,0,0-.58.18.615.615,0,0,0-.17.49V75.81c0,.41.06.68.79.68h1.35c.62,0,.71-.2.71-.68V25.56c0-.76-.02-1.51-.06-2.24s-.08-1.42-.13-2.07a1.068,1.068,0,0,0-.23-.6.757.757,0,0,0-.49-.13h-1.19Z" fill="#006aff"/>
    <path id="Path_5426" data-name="Path 5426" d="M457.66,75.9a1.246,1.246,0,0,1-.43,1.02,1.684,1.684,0,0,1-1.16.37h-1.24a1.373,1.373,0,0,1-1.55-1.55V69.01a11.87,11.87,0,0,1-2.05,3.85,12.912,12.912,0,0,1-3.19,2.84,15.023,15.023,0,0,1-4.08,1.78,17.944,17.944,0,0,1-4.76.62,17.581,17.581,0,0,1-7.35-1.55,18.593,18.593,0,0,1-5.9-4.21,19.818,19.818,0,0,1-3.92-6.26,20.692,20.692,0,0,1-1.43-7.69,21.028,21.028,0,0,1,1.41-7.71,19.874,19.874,0,0,1,3.9-6.32,18.143,18.143,0,0,1,5.9-4.25,18.268,18.268,0,0,1,12.23-.89,15.563,15.563,0,0,1,4.16,1.86,13.319,13.319,0,0,1,3.17,2.84,10.343,10.343,0,0,1,1.89,3.61l.15-6.61a1.886,1.886,0,0,1,.39-1.18,1.407,1.407,0,0,1,1.12-.41h1.12a1.643,1.643,0,0,1,1.14.41,1.5,1.5,0,0,1,.44,1.18V75.9Zm-4.41-17.48a17.489,17.489,0,0,0-1.02-5.99,15.413,15.413,0,0,0-2.88-4.95,13.534,13.534,0,0,0-4.45-3.36,13.766,13.766,0,0,0-11.42,0A14.021,14.021,0,0,0,429,47.46a15.717,15.717,0,0,0-2.94,4.93,17.4,17.4,0,0,0,0,11.96,15.1,15.1,0,0,0,2.96,4.89,14.128,14.128,0,0,0,4.5,3.31,13.342,13.342,0,0,0,5.7,1.22,13.208,13.208,0,0,0,5.64-1.2,13.56,13.56,0,0,0,4.45-3.27,15.113,15.113,0,0,0,2.9-4.87,17.213,17.213,0,0,0,1.04-6.01" fill="#006aff"/>
    <path id="Path_5427" data-name="Path 5427" d="M439.22,78.82a18.3,18.3,0,0,1-7.64-1.61,19.158,19.158,0,0,1-6.12-4.38,20.7,20.7,0,0,1-4.07-6.49,21.492,21.492,0,0,1-1.48-7.96,21.777,21.777,0,0,1,1.46-7.97,20.954,20.954,0,0,1,4.04-6.55,18.9,18.9,0,0,1,6.13-4.42,19.111,19.111,0,0,1,12.73-.93,16.516,16.516,0,0,1,4.35,1.94,13.953,13.953,0,0,1,3.34,3,10.558,10.558,0,0,1,.69.96l.08-3.53a2.593,2.593,0,0,1,.56-1.63,2.055,2.055,0,0,1,1.66-.66h1.12a2.324,2.324,0,0,1,1.62.59,2.214,2.214,0,0,1,.68,1.71V75.88a2.032,2.032,0,0,1-.67,1.57,2.411,2.411,0,0,1-1.63.54h-1.24a2.077,2.077,0,0,1-2.26-2.26V72.22a10.608,10.608,0,0,1-.78,1.08,13.735,13.735,0,0,1-3.36,3,15.622,15.622,0,0,1-4.27,1.86,18.082,18.082,0,0,1-4.94.66m0-39.55a17.085,17.085,0,0,0-7.09,1.48,17.518,17.518,0,0,0-5.67,4.09,19.246,19.246,0,0,0-3.76,6.1,20.448,20.448,0,0,0-1.36,7.45,19.907,19.907,0,0,0,1.38,7.43,19.372,19.372,0,0,0,3.78,6.04,17.861,17.861,0,0,0,5.67,4.05,16.967,16.967,0,0,0,7.05,1.48,17.394,17.394,0,0,0,4.57-.59,14.506,14.506,0,0,0,3.89-1.69,12.086,12.086,0,0,0,3.01-2.69,11.337,11.337,0,0,0,1.93-3.62l1.4-4.35v11.3c0,.64.19.83.83.83h1.24a1.092,1.092,0,0,0,.69-.19.569.569,0,0,0,.18-.48v-35a.789.789,0,0,0-.21-.65.9.9,0,0,0-.66-.22h-1.12a.842.842,0,0,0-.58.16,1.307,1.307,0,0,0-.22.75l-.26,11.18-1.3-4.4a9.748,9.748,0,0,0-1.77-3.37,12.529,12.529,0,0,0-3-2.69,14.842,14.842,0,0,0-3.96-1.77,16.972,16.972,0,0,0-4.66-.63m0,35.22a14.005,14.005,0,0,1-6.01-1.29,14.861,14.861,0,0,1-4.73-3.47,15.952,15.952,0,0,1-3.1-5.12,18.066,18.066,0,0,1,0-12.47,16.5,16.5,0,0,1,3.07-5.15,14.811,14.811,0,0,1,4.71-3.52,13.954,13.954,0,0,1,6.05-1.31,13.721,13.721,0,0,1,5.99,1.31,14.32,14.32,0,0,1,4.68,3.54,16.306,16.306,0,0,1,3.01,5.17,18.182,18.182,0,0,1,1.07,6.24,17.907,17.907,0,0,1-1.09,6.26,15.894,15.894,0,0,1-3.04,5.1,14.319,14.319,0,0,1-4.68,3.44,13.93,13.93,0,0,1-5.93,1.27m0-30.89a12.48,12.48,0,0,0-5.43,1.17,13.41,13.41,0,0,0-4.26,3.17,14.8,14.8,0,0,0-2.8,4.71,16.315,16.315,0,0,0-1.02,5.74,15.944,15.944,0,0,0,1.02,5.72,14.425,14.425,0,0,0,2.82,4.66,13.408,13.408,0,0,0,4.28,3.14,12.839,12.839,0,0,0,14.95-3.08,14.547,14.547,0,0,0,2.76-4.64,16.523,16.523,0,0,0,1-5.76,16.858,16.858,0,0,0-.98-5.75,14.656,14.656,0,0,0-2.75-4.72,12.912,12.912,0,0,0-4.22-3.19,12.278,12.278,0,0,0-5.37-1.17" fill="#006aff"/>
    <path id="Path_5428" data-name="Path 5428" d="M478.15,91.24a2.153,2.153,0,0,1-2.05,1.12h-1.24a1.427,1.427,0,0,1-1.22-.5,1.469,1.469,0,0,1-.06-1.39l6.03-14.38L465.07,41.14a1.544,1.544,0,0,1-.04-1.47,1.446,1.446,0,0,1,1.24-.46h1.62a1.314,1.314,0,0,1,1.01.35,4.671,4.671,0,0,1,.62.93L482.2,70.84,494.57,40.3a2.127,2.127,0,0,1,2.05-1.08h1.24a1.231,1.231,0,0,1,1.28,1.85Z" fill="#006aff"/>
    <path id="Path_5429" data-name="Path 5429" d="M476.1,93.08h-1.24a2.087,2.087,0,0,1-1.8-.8,2.154,2.154,0,0,1-.16-2.05l.02-.04,5.92-14.11L464.42,41.41a2.178,2.178,0,0,1,.05-2.17,2.111,2.111,0,0,1,1.81-.75h1.62a1.975,1.975,0,0,1,1.54.59,5.666,5.666,0,0,1,.72,1.07l.03.06L482.2,68.95l11.73-28.96.02-.03a2.8,2.8,0,0,1,2.68-1.46h1.24a2.118,2.118,0,0,1,1.79.77,2.082,2.082,0,0,1,.16,2.04l-.02.04L478.79,91.57l-.02.03a2.856,2.856,0,0,1-2.67,1.48m-1.84-2.35c-.07.2-.16.55-.03.71a.765.765,0,0,0,.64.21h1.24a1.43,1.43,0,0,0,1.4-.72l20.97-50.12c.11-.32.13-.57.04-.69a.81.81,0,0,0-.65-.2h-1.24a1.422,1.422,0,0,0-1.4.67L482.22,72.71,468.88,40.79a3.562,3.562,0,0,0-.51-.76.708.708,0,0,0-.47-.11h-1.62c-.34,0-.58.06-.66.18,0,0-.1.17.13.78l14.64,35.21Z" fill="#006aff"/>
    <path id="Path_5430" data-name="Path 5430" d="M85.17,100.91H14.71A14.7,14.7,0,0,1,0,86.21V14.71A14.709,14.709,0,0,1,14.71,0H85.18A14.709,14.709,0,0,1,99.89,14.71v71.5a14.722,14.722,0,0,1-14.72,14.7" fill="#006aff"/>
    <path id="Path_5431" data-name="Path 5431" d="M27.75,42.04h0a3.147,3.147,0,0,0-3.15,3.14l-.03,24.83a3.14,3.14,0,1,0,6.28.01l.03-24.83a3.126,3.126,0,0,0-3.13-3.15" fill="#fff"/>
    <path id="Path_5432" data-name="Path 5432" d="M73.31,42.04h0a3.141,3.141,0,0,0-3.14,3.15l.03,24.83a3.14,3.14,0,1,0,6.28-.01l-.03-24.83a3.145,3.145,0,0,0-3.14-3.14" fill="#fff"/>
    <path id="Path_5433" data-name="Path 5433" d="M82.43,36.12l-13.8-9.63V15.61a3.14,3.14,0,1,0-6.28,0V22.1l-10.02-7a3.163,3.163,0,0,0-3.59-.01L18.64,35.9a3.141,3.141,0,1,0,3.57,5.17L50.52,21.51,78.83,41.28a3.146,3.146,0,1,0,3.6-5.16" fill="#fff"/>
    <path id="Path_5434" data-name="Path 5434" d="M92.58,64.48a1.314,1.314,0,0,0-1.86-.07,2.4,2.4,0,0,1-4.03-1.76,1.982,1.982,0,0,1,.03-.35,1.319,1.319,0,1,0-2.61-.39,4.526,4.526,0,0,0-.05.74,5.042,5.042,0,0,0,1.6,3.68c-16.78,21.05-53.68,20.88-70.19-.07A5.046,5.046,0,0,0,17,62.65a6,6,0,0,0-.05-.74,1.319,1.319,0,1,0-2.61.39,2.159,2.159,0,0,1,.03.35,2.4,2.4,0,0,1-4.03,1.76,1.316,1.316,0,1,0-1.79,1.93,5.037,5.037,0,0,0,3.42,1.34,4.892,4.892,0,0,0,1.58-.26c23.76,28.18,50.52,27.87,74.07.03a5.127,5.127,0,0,0,1.47.22,5.037,5.037,0,0,0,3.42-1.34,1.31,1.31,0,0,0,.07-1.85" fill="#fff"/>
  </g>
</svg>
